<?xml version="1.0" encoding="utf-8"?>
<!-- Generator: Adobe Illustrator 16.0.0, SVG Export Plug-In . SVG Version: 6.00 Build 0)  -->
<!DOCTYPE svg PUBLIC "-//W3C//DTD SVG 1.1//EN" "http://www.w3.org/Graphics/SVG/1.1/DTD/svg11.dtd">
<svg version="1.1" id="Layer_1" xmlns="http://www.w3.org/2000/svg" xmlns:xlink="http://www.w3.org/1999/xlink" x="0px" y="0px"
	 width="500px" height="500px" viewBox="0 0 500 500" enable-background="new 0 0 500 500" xml:space="preserve">
<g>
	<rect x="207.883" y="50.493" fill="#414042" width="84.234" height="37.356"/>
	<path fill="#414042" d="M286.752,126.186V97.073h-73.504v29.113c-37.772,11.937-64.596,41.646-64.596,76.501v147.072
		c0,2.51,0.188,4.988,0.455,7.435v92.313h201.785v-92.313c0.267-2.447,0.455-4.925,0.455-7.435V202.687
		C351.348,167.833,324.524,138.123,286.752,126.186z M338.501,343.861c0,1.584-0.157,3.106-0.282,4.674v-30.023H161.641v27.576
		c-0.031-0.737-0.125-1.459-0.125-2.228V208.036c0-41.89,39.622-75.858,88.484-75.858c48.847,0,88.501,33.968,88.501,75.858V343.861
		z"/>
</g>
</svg>
