<?xml version="1.0" encoding="utf-8"?>
<!-- Generator: Adobe Illustrator 16.0.0, SVG Export Plug-In . SVG Version: 6.00 Build 0)  -->
<!DOCTYPE svg PUBLIC "-//W3C//DTD SVG 1.1//EN" "http://www.w3.org/Graphics/SVG/1.1/DTD/svg11.dtd">
<svg version="1.1" id="Layer_1" xmlns="http://www.w3.org/2000/svg" xmlns:xlink="http://www.w3.org/1999/xlink" x="0px" y="0px"
	 width="500px" height="500px" viewBox="0 0 500 500" enable-background="new 0 0 500 500" xml:space="preserve">
<g>
	<polygon fill="#414042" points="64.627,361.25 207.246,462.946 215.755,451.011 73.123,349.315 	"/>
	<path fill="#414042" d="M381.315,157.783l-0.228-0.175c1.553-6.828-13.564-23.833-35.533-39.483
		c-21.96-15.65-42.931-24.427-48.899-20.72l-0.244-0.167L75.954,345.342l142.633,101.695L381.315,157.783z M241.986,167.176
		l53.116-59.754l0.213,0.152c5.374-3.349,24.419,4.598,44.339,18.801c19.929,14.22,33.668,29.634,32.252,35.822l0.213,0.145
		l-39.202,69.672c-9.591-12.271-23.946-25.774-41.348-38.182C274.169,181.418,256.723,172.253,241.986,167.176z"/>
	<path fill="#414042" d="M349.619,112.431c12.887,9.188,22.394,17.964,21.222,19.623l21.283-29.854
		c0.913-1.271-8.815-9.759-21.695-18.953c-12.894-9.196-24.084-15.621-24.982-14.341L324.149,98.76
		C325.336,97.108,336.709,103.236,349.619,112.431z"/>
</g>
</svg>
