<?xml version="1.0" encoding="utf-8"?>
<!-- Generator: Adobe Illustrator 16.0.0, SVG Export Plug-In . SVG Version: 6.00 Build 0)  -->
<!DOCTYPE svg PUBLIC "-//W3C//DTD SVG 1.1//EN" "http://www.w3.org/Graphics/SVG/1.1/DTD/svg11.dtd">
<svg version="1.1" id="Layer_1" xmlns="http://www.w3.org/2000/svg" xmlns:xlink="http://www.w3.org/1999/xlink" x="0px" y="0px"
	 width="500px" height="500px" viewBox="0 0 500 500" enable-background="new 0 0 500 500" xml:space="preserve">
<g>
	<g>
		<path fill="#414042" d="M342.282,272.109c3.331,7.414,12.055,10.727,19.469,7.371c7.396-3.33,10.71-12.037,7.371-19.434
			c-3.331-7.424-12.038-10.711-19.451-7.381C342.223,255.98,338.959,264.713,342.282,272.109z"/>
		<path fill="#414042" d="M355.703,281.041L355.703,281.041c-5.882,0-11.239-3.467-13.649-8.83
			c-1.646-3.664-1.763-7.744-0.331-11.492c1.422-3.721,4.209-6.662,7.847-8.281c1.951-0.877,4.017-1.32,6.139-1.32
			c5.881,0,11.235,3.465,13.643,8.826c1.641,3.637,1.764,7.697,0.346,11.434c-1.418,3.734-4.203,6.691-7.843,8.33
			C359.9,280.592,357.83,281.041,355.703,281.041z M355.708,251.617c-2.051,0-4.048,0.43-5.935,1.277
			c-3.517,1.564-6.209,4.406-7.583,8.002c-1.385,3.623-1.271,7.568,0.32,11.109c2.329,5.186,7.507,8.535,13.191,8.535h0.001
			c2.056,0,4.056-0.434,5.944-1.289c3.519-1.584,6.211-4.443,7.581-8.053c1.371-3.611,1.252-7.535-0.334-11.051
			C366.568,254.965,361.392,251.617,355.708,251.617z"/>
	</g>
	<g>
		<path fill="#414042" d="M368.96,215.852c3.483,7.734,12.621,11.201,20.39,7.719c7.727-3.484,11.21-12.605,7.71-20.365
			c-3.5-7.742-12.612-11.209-20.373-7.727C368.944,198.961,365.469,208.109,368.96,215.852z"/>
		<path fill="#414042" d="M383.041,225.174L383.041,225.174c-6.17,0-11.786-3.619-14.308-9.219
			c-1.716-3.805-1.842-8.059-0.355-11.977c1.485-3.916,4.4-7.016,8.207-8.727c2.035-0.914,4.189-1.377,6.403-1.377
			c6.153,0,11.767,3.621,14.3,9.229c1.719,3.809,1.847,8.063,0.361,11.977c-1.483,3.908-4.395,7.004-8.196,8.717
			C387.415,224.711,385.257,225.174,383.041,225.174z M382.988,194.375c-2.143,0-4.228,0.447-6.198,1.332
			c-3.685,1.656-6.506,4.658-7.945,8.449c-1.438,3.793-1.316,7.91,0.344,11.594c2.442,5.42,7.879,8.924,13.852,8.924h0.001
			c2.146,0,4.234-0.447,6.207-1.332c3.68-1.658,6.498-4.656,7.934-8.439c1.438-3.789,1.314-7.906-0.349-11.594
			C394.379,197.881,388.945,194.375,382.988,194.375z"/>
	</g>
	<g>
		<path fill="#414042" d="M312.991,322.152c-0.245,8.539,6.442,15.631,14.946,15.867c8.504,0.279,15.596-6.424,15.858-14.945
			c0.228-8.512-6.467-15.57-14.972-15.85C320.345,306.971,313.236,313.674,312.991,322.152z"/>
		<path fill="#414042" d="M328.45,338.279C328.449,338.279,328.45,338.279,328.45,338.279c-0.173,0-0.347-0.004-0.521-0.01
			c-4.18-0.115-8.061-1.855-10.928-4.898c-2.868-3.043-4.381-7.029-4.261-11.225c0.247-8.527,7.507-15.43,16.091-15.172
			c8.619,0.283,15.443,7.508,15.214,16.107C343.783,331.604,336.931,338.279,328.45,338.279z M328.36,307.467
			c-8.103,0-14.885,6.592-15.119,14.693c-0.117,4.063,1.348,7.922,4.124,10.867c2.775,2.945,6.532,4.631,10.579,4.742
			c0.17,0.006,0.338,0.01,0.506,0.01c8.21,0,14.842-6.463,15.096-14.713c0.223-8.322-6.385-15.318-14.729-15.592
			C328.664,307.469,328.511,307.467,328.36,307.467z"/>
	</g>
	<g>
		<path fill="#414042" d="M101.581,232.303c-0.253,8.105,6.129,14.92,14.278,15.156c8.107,0.219,14.886-6.146,15.123-14.303
			c0.254-8.125-6.154-14.92-14.286-15.158C108.563,217.762,101.817,224.195,101.581,232.303z"/>
		<path fill="#414042" d="M116.265,247.715c0,0-0.001,0-0.001,0c-0.137,0-0.275-0.002-0.412-0.006
			c-4.001-0.115-7.716-1.785-10.459-4.699c-2.744-2.916-4.187-6.721-4.062-10.715c0.238-8.16,6.797-14.553,14.931-14.553
			c0.146,0,0.293,0.002,0.441,0.006c4.004,0.117,7.722,1.789,10.47,4.707c2.742,2.914,4.184,6.717,4.059,10.709
			C130.995,241.322,124.42,247.715,116.265,247.715z M116.262,218.242c-7.862,0-14.201,6.18-14.431,14.066
			c-0.121,3.863,1.273,7.541,3.926,10.357c2.652,2.818,6.242,4.432,10.109,4.543c0.132,0.004,0.266,0.006,0.398,0.006
			c7.884,0,14.239-6.178,14.468-14.066c0.121-3.859-1.272-7.535-3.923-10.35c-2.656-2.822-6.25-4.438-10.12-4.551
			C116.545,218.244,116.403,218.242,116.262,218.242z"/>
	</g>
	<g>
		<path fill="#414042" d="M157.626,169.865c3.491,7.744,0.068,16.865-7.701,20.373c-7.751,3.482-16.881,0.018-20.381-7.744
			c-3.482-7.768-0.017-16.863,7.727-20.346C145.031,158.639,154.144,162.105,157.626,169.865z"/>
		<path fill="#414042" d="M143.628,191.842c-6.161,0-11.779-3.629-14.312-9.244c-3.527-7.869-0.004-17.145,7.852-20.678
			c2.042-0.924,4.206-1.393,6.428-1.393c6.144,0,11.741,3.625,14.258,9.236c3.546,7.865,0.036,17.152-7.826,20.701
			C147.995,191.379,145.842,191.842,143.628,191.842z M143.596,161.027c-2.151,0-4.244,0.453-6.222,1.348
			c-7.606,3.422-11.016,12.4-7.602,20.018c2.452,5.438,7.891,8.949,13.856,8.949c2.143,0,4.227-0.447,6.194-1.332
			c7.61-3.436,11.009-12.426,7.576-20.041C154.961,164.537,149.544,161.027,143.596,161.027z"/>
	</g>
	<g>
		<path fill="#414042" d="M127.093,363.381c3.331,7.412,12.054,10.727,19.459,7.371c7.405-3.332,10.719-12.039,7.38-19.461
			c-3.339-7.396-12.038-10.684-19.451-7.354C127.025,347.25,123.762,356,127.093,363.381z"/>
		<path fill="#414042" d="M140.511,372.313C140.51,372.313,140.51,372.313,140.511,372.313c-5.88,0-11.236-3.467-13.646-8.83
			c-1.649-3.654-1.77-7.73-0.34-11.48c1.422-3.729,4.211-6.674,7.855-8.293c1.952-0.877,4.018-1.322,6.14-1.322
			c5.873,0,11.227,3.455,13.641,8.803c1.642,3.648,1.764,7.717,0.345,11.455c-1.418,3.736-4.206,6.695-7.85,8.334
			C144.704,371.863,142.637,372.313,140.511,372.313z M140.52,342.887c-2.051,0-4.048,0.43-5.936,1.279
			c-3.522,1.564-6.218,4.41-7.592,8.014c-1.382,3.625-1.265,7.566,0.329,11.098c2.329,5.184,7.506,8.535,13.189,8.535h0
			c2.054,0,4.052-0.434,5.939-1.289c3.522-1.584,6.217-4.445,7.588-8.057c1.372-3.613,1.253-7.545-0.333-11.072
			C151.372,346.227,146.196,342.887,140.52,342.887z"/>
	</g>
	<g>
		<path fill="#414042" d="M153.772,307.115c3.474,7.742,12.629,11.209,20.381,7.725c7.735-3.482,11.209-12.604,7.718-20.389
			c-3.5-7.719-12.612-11.184-20.372-7.701C153.755,290.232,150.281,299.379,153.772,307.115z"/>
		<path fill="#414042" d="M167.85,316.445L167.85,316.445c-6.175,0-11.791-3.623-14.306-9.229
			c-1.714-3.797-1.842-8.045-0.359-11.959c1.485-3.92,4.401-7.021,8.211-8.734c2.036-0.914,4.192-1.379,6.407-1.379
			c6.149,0,11.76,3.613,14.295,9.203c3.537,7.887,0.018,17.182-7.843,20.721C172.222,315.982,170.067,316.445,167.85,316.445z
			 M167.803,285.645c-2.145,0-4.231,0.449-6.202,1.334c-3.688,1.658-6.511,4.662-7.949,8.457c-1.435,3.789-1.312,7.9,0.348,11.576
			c2.435,5.428,7.871,8.934,13.85,8.934c2.146,0,4.232-0.449,6.201-1.334c7.61-3.426,11.016-12.424,7.592-20.057
			C179.189,289.143,173.756,285.645,167.803,285.645z"/>
	</g>
	<g>
		<path fill="#414042" d="M207.764,187.287c-0.262,8.107,6.128,14.904,14.261,15.115c8.107,0.236,14.895-6.146,15.115-14.277
			c0.262-8.123-6.137-14.92-14.252-15.156C214.729,172.73,208,179.182,207.764,187.287z"/>
		<path fill="#414042" d="M222.461,202.66C222.46,202.66,222.46,202.66,222.461,202.66c-0.148-0.002-0.296-0.004-0.444-0.008
			c-3.995-0.104-7.706-1.762-10.449-4.67c-2.744-2.91-4.184-6.711-4.055-10.703c0.243-8.316,7.01-14.795,15.38-14.561
			c3.993,0.115,7.702,1.785,10.443,4.699c2.742,2.916,4.18,6.721,4.052,10.715C237.169,196.277,230.611,202.66,222.461,202.66z
			 M222.451,173.213c-7.865,0-14.207,6.186-14.438,14.082c-0.125,3.859,1.267,7.533,3.918,10.344
			c2.651,2.811,6.237,4.414,10.099,4.514c0.144,0.004,0.287,0.006,0.429,0.008c7.878,0,14.216-6.168,14.429-14.043
			c0.125-3.861-1.266-7.539-3.916-10.355c-2.649-2.818-6.234-4.432-10.094-4.543C222.736,173.215,222.593,173.213,222.451,173.213z"
			/>
	</g>
	<g>
		<path fill="#414042" d="M208.55,238.211c3.356,7.396,0.042,16.111-7.363,19.443c-7.448,3.33-16.121,0.041-19.468-7.371
			c-3.322-7.406-0.051-16.139,7.397-19.469C196.495,227.484,205.236,230.814,208.55,238.211z"/>
		<path fill="#414042" d="M195.134,259.203c-5.869,0-11.224-3.461-13.644-8.818c-1.643-3.662-1.761-7.742-0.332-11.488
			c1.421-3.73,4.211-6.682,7.855-8.311c1.933-0.873,3.983-1.314,6.095-1.314c5.898,0,11.264,3.469,13.669,8.838
			c1.646,3.629,1.777,7.684,0.367,11.418c-1.415,3.744-4.204,6.713-7.855,8.354C199.328,258.76,197.257,259.203,195.134,259.203z
			 M195.109,229.771c-2.041,0-4.022,0.428-5.89,1.27c-3.522,1.576-6.219,4.428-7.593,8.033c-1.381,3.621-1.267,7.566,0.321,11.105
			c2.338,5.178,7.515,8.523,13.188,8.523c2.052,0,4.054-0.43,5.951-1.277c3.529-1.588,6.225-4.455,7.592-8.076
			c1.362-3.607,1.236-7.527-0.355-11.035C205.997,233.125,200.811,229.771,195.109,229.771z"/>
	</g>
	<g>
		<path fill="#414042" d="M263.801,124.834c3.482,7.744,0.067,16.865-7.692,20.365c-7.777,3.482-16.891,0.025-20.39-7.744
			c-3.5-7.734-0.017-16.855,7.727-20.363C251.206,113.607,260.318,117.049,263.801,124.834z"/>
		<path fill="#414042" d="M249.795,146.805c-6.159,0-11.774-3.629-14.304-9.246c-3.548-7.844-0.026-17.127,7.852-20.695
			c2.041-0.916,4.2-1.381,6.417-1.381c6.154,0,11.756,3.631,14.271,9.25c3.539,7.869,0.032,17.154-7.818,20.693
			C254.17,146.34,252.011,146.805,249.795,146.805z M249.759,115.982c-2.146,0-4.236,0.449-6.211,1.338
			c-7.625,3.453-11.036,12.439-7.602,20.031c2.45,5.439,7.886,8.953,13.849,8.953c2.145,0,4.236-0.449,6.211-1.334
			c7.599-3.428,10.993-12.414,7.567-20.033C261.139,119.498,255.717,115.982,249.759,115.982z"/>
	</g>
	<g>
		<path fill="#414042" d="M233.267,318.34c3.331,7.422,12.055,10.736,19.46,7.381c7.405-3.357,10.728-12.021,7.38-19.461
			c-3.322-7.396-12.029-10.668-19.451-7.354C233.2,302.195,229.945,310.943,233.267,318.34z"/>
		<path fill="#414042" d="M246.685,327.281c-5.88,0-11.236-3.469-13.646-8.838c-1.651-3.678-1.766-7.77-0.324-11.527
			c1.425-3.711,4.209-6.639,7.839-8.238c1.953-0.873,4.019-1.314,6.141-1.314c5.886,0,11.24,3.451,13.64,8.795
			c3.377,7.506,0.011,16.383-7.505,19.789C250.879,326.832,248.812,327.281,246.685,327.281z M246.695,297.863
			c-2.051,0-4.048,0.428-5.938,1.271c-3.508,1.547-6.198,4.375-7.576,7.961c-1.394,3.631-1.283,7.588,0.313,11.143
			c2.329,5.189,7.507,8.543,13.19,8.543c2.055,0,4.053-0.434,5.938-1.289c7.266-3.293,10.521-11.875,7.256-19.129
			C257.56,301.199,252.385,297.863,246.695,297.863z"/>
	</g>
	<g>
		<path fill="#414042" d="M259.946,262.084c3.483,7.742,12.63,11.225,20.39,7.727c7.727-3.492,11.209-12.605,7.71-20.373
			c-3.5-7.744-12.63-11.227-20.382-7.719C259.946,245.201,256.463,254.322,259.946,262.084z"/>
		<path fill="#414042" d="M274.026,271.422C274.025,271.422,274.025,271.422,274.026,271.422c-6.168,0-11.784-3.625-14.308-9.236
			c-3.53-7.867-0.012-17.15,7.843-20.693c2.036-0.922,4.195-1.391,6.415-1.391c6.15,0,11.763,3.625,14.297,9.232
			c3.542,7.863,0.027,17.152-7.835,20.703C278.402,270.957,276.245,271.422,274.026,271.422z M273.976,240.602
			c-2.148,0-4.237,0.453-6.209,1.346c-7.604,3.432-11.011,12.418-7.593,20.033c2.442,5.432,7.88,8.941,13.851,8.941l0,0
			c2.148,0,4.236-0.451,6.208-1.34c7.61-3.439,11.014-12.43,7.585-20.043C285.364,244.111,279.93,240.602,273.976,240.602z"/>
	</g>
	<g>
		<path fill="#414042" d="M313.929,142.23c-0.236,8.133,6.129,14.904,14.278,15.166c8.115,0.211,14.886-6.17,15.114-14.303
			c0.262-8.107-6.146-14.93-14.27-15.166C320.904,127.691,314.174,134.125,313.929,142.23z"/>
		<path fill="#414042" d="M328.599,157.652C328.599,157.652,328.599,157.652,328.599,157.652c-0.133,0-0.266-0.002-0.398-0.006
			c-8.247-0.264-14.761-7.184-14.521-15.422c0.252-8.307,7.064-14.771,15.38-14.547c3.995,0.117,7.708,1.789,10.454,4.711
			c2.746,2.918,4.188,6.723,4.059,10.713C343.342,151.26,336.765,157.652,328.599,157.652z M328.618,128.172
			c-7.858,0-14.2,6.18-14.438,14.066c-0.231,7.965,6.065,14.652,14.036,14.908c0.127,0.004,0.256,0.006,0.383,0.006
			c7.895,0,14.252-6.178,14.474-14.066c0.125-3.855-1.269-7.533-3.923-10.355c-2.655-2.824-6.243-4.439-10.104-4.553
			C328.902,128.174,328.759,128.172,328.618,128.172z"/>
	</g>
	<g>
		<path fill="#414042" d="M203.968,368.385c-0.237,8.521,6.45,15.639,14.945,15.875c8.504,0.254,15.605-6.449,15.867-14.971
			c0.228-8.471-6.458-15.572-14.971-15.824C211.331,353.227,204.222,359.914,203.968,368.385z"/>
		<path fill="#414042" d="M219.38,384.518c-0.167-0.004-0.316-0.002-0.474-0.008c-8.615-0.24-15.428-7.477-15.188-16.133
			c0.255-8.51,7.537-15.391,16.098-15.162c8.621,0.256,15.446,7.469,15.214,16.08C234.768,377.832,227.894,384.518,219.38,384.518z
			 M219.372,353.709c-8.114,0-14.912,6.586-15.154,14.684c-0.233,8.379,6.362,15.385,14.702,15.617
			c0.153,0.006,0.307,0.008,0.458,0.008c8.242,0,14.897-6.473,15.152-14.736c0.225-8.336-6.383-15.318-14.729-15.566
			C219.659,353.711,219.515,353.709,219.372,353.709z"/>
	</g>
	<g>
		<path fill="#414042" d="M314.732,193.18c3.348,7.396,0.043,16.129-7.371,19.443c-7.447,3.33-16.12,0.041-19.468-7.355
			c-3.313-7.422-0.042-16.129,7.388-19.484C302.669,182.428,311.411,185.758,314.732,193.18z"/>
		<path fill="#414042" d="M301.306,214.172c-5.866,0-11.221-3.453-13.641-8.801c-3.365-7.537,0.006-16.426,7.513-19.814
			c1.942-0.883,4.003-1.33,6.125-1.33c5.89,0,11.25,3.475,13.657,8.852c1.647,3.641,1.773,7.707,0.353,11.451
			c-1.419,3.738-4.207,6.693-7.851,8.322C305.501,213.729,303.43,214.172,301.306,214.172z M301.303,184.727
			c-2.05,0-4.041,0.432-5.919,1.285c-7.257,3.277-10.515,11.869-7.263,19.154c2.339,5.168,7.514,8.506,13.185,8.506
			c2.054,0,4.056-0.43,5.952-1.277c3.521-1.574,6.216-4.43,7.587-8.043c1.373-3.617,1.252-7.549-0.341-11.068
			C312.177,188.084,306.997,184.727,301.303,184.727z"/>
	</g>
</g>
</svg>
