<?xml version="1.0" encoding="utf-8"?>
<!-- Generator: Adobe Illustrator 16.0.0, SVG Export Plug-In . SVG Version: 6.00 Build 0)  -->
<!DOCTYPE svg PUBLIC "-//W3C//DTD SVG 1.1//EN" "http://www.w3.org/Graphics/SVG/1.1/DTD/svg11.dtd">
<svg version="1.1" id="Layer_1" xmlns="http://www.w3.org/2000/svg" xmlns:xlink="http://www.w3.org/1999/xlink" x="0px" y="0px"
	 width="500px" height="500px" viewBox="0 0 500 500" enable-background="new 0 0 500 500" xml:space="preserve">
<path fill="none" d="M327.938,220.832l-84.885-35.707c-2.536-1.057-5.453,0.127-6.523,2.663l-35.692,84.87
	c-1.071,2.537,0.126,5.453,2.662,6.524l84.885,35.707c2.522,1.071,5.439-0.141,6.51-2.677l35.693-84.87
	C331.672,224.805,330.475,221.889,327.938,220.832z"/>
<path fill="#414042" d="M399.535,196.454c-4.58-11.245-14.092-23.8-26.153-35.523c-15.204-14.824-34.467-28.309-52.968-36.087
	l-56.139-23.603c-33.143-13.936-62.438-25.293-65.115-25.237c-2.677,0.07-18.177,31.761-32.127,64.903L119.49,253.974
	c-13.937,33.142-25.294,62.438-25.237,65.129c0.057,2.677,31.761,18.177,64.89,32.113l113.094,47.543
	c33.128,13.95,62.438,25.293,65.115,25.237c2.677-0.056,18.177-31.747,32.127-64.875l23.588-56.138
	c7.92-18.826,12.273-42.386,12.654-63.931C406.017,222.664,404.029,207.459,399.535,196.454z M309.789,235.5l-22.855,54.335
	c-0.69,1.634-2.537,2.396-4.157,1.705l-54.362-22.855c-1.621-0.676-2.382-2.55-1.705-4.171l22.855-54.349
	c0.69-1.62,2.55-2.381,4.185-1.705l54.349,22.87C309.719,232.006,310.479,233.88,309.789,235.5z M401.451,240.545L354.951,221
	c-3.692-1.564-5.904-5.143-5.904-8.919c0-1.24,0.239-2.508,0.746-3.734l19.319-45.937c12.034,11.738,21.56,24.293,26.153,35.538
	c4.185,10.287,6.214,24.265,6.214,39.441C401.479,238.431,401.465,239.488,401.451,240.545z"/>
</svg>
