<?xml version="1.0" encoding="utf-8"?>
<!-- Generator: Adobe Illustrator 16.0.0, SVG Export Plug-In . SVG Version: 6.00 Build 0)  -->
<!DOCTYPE svg PUBLIC "-//W3C//DTD SVG 1.1//EN" "http://www.w3.org/Graphics/SVG/1.1/DTD/svg11.dtd">
<svg version="1.1" id="Layer_1" xmlns="http://www.w3.org/2000/svg" xmlns:xlink="http://www.w3.org/1999/xlink" x="0px" y="0px"
	 width="500px" height="500px" viewBox="0 0 500 500" enable-background="new 0 0 500 500" xml:space="preserve">
<g>
	<g>
		<path fill="#414042" d="M351.105,292.018c-2.707-8.987-9.474-21.682-9.474-21.682c-1.035-1.941-2.62-5.171-3.523-7.178
			L251.692,71.052c-0.903-2.006-2.38-2.007-3.284-0.001l-86.45,191.931c-0.903,2.006-2.488,5.236-3.522,7.178
			c0,0-6.843,12.856-9.564,21.902c-3.045,10.091-4.67,20.829-4.67,31.949c0,0.029,0,0.059,0,0.073
			c0.044,59.883,47.335,108.512,105.783,108.512s105.754-48.629,105.813-108.512c0-0.015,0-0.044,0-0.073
			C355.798,312.875,354.158,302.123,351.105,292.018z M286.546,347.604c-20.814,0-37.664-16.886-37.664-37.671
			c0-20.813,16.85-37.686,37.664-37.686c20.806,0,37.678,16.872,37.678,37.686C324.224,330.718,307.352,347.604,286.546,347.604z"/>
	</g>
</g>
</svg>
