<?xml version="1.0" encoding="utf-8"?>
<!-- Generator: Adobe Illustrator 16.0.0, SVG Export Plug-In . SVG Version: 6.00 Build 0)  -->
<!DOCTYPE svg PUBLIC "-//W3C//DTD SVG 1.1//EN" "http://www.w3.org/Graphics/SVG/1.1/DTD/svg11.dtd">
<svg version="1.1" id="Layer_1" xmlns="http://www.w3.org/2000/svg" xmlns:xlink="http://www.w3.org/1999/xlink" x="0px" y="0px"
	 width="500px" height="500px" viewBox="0 0 500 500" enable-background="new 0 0 500 500" xml:space="preserve">
<path fill="#1A1A1A" d="M250,103.193c-81.082,0-146.807,65.725-146.807,146.813c0,81.075,65.725,146.8,146.807,146.8
	c81.089,0,146.807-65.725,146.807-146.8C396.807,168.918,331.089,103.193,250,103.193z M259.123,323.568h-25.191v-21.422h25.191
	V323.568z M283.416,253.305c-4.256,6.17-9.584,11.34-15.98,15.51c-3.486,2.686-5.771,5.385-6.855,8.098
	c-1.086,2.715-1.629,6.441-1.629,11.182h-24.934c0.057-7.996,1.242-13.852,3.555-17.564c2.314-3.713,6.926-8.227,13.84-13.539
	c4.055-3.313,7.297-6.883,9.725-10.711c2.428-3.826,3.643-8.111,3.643-12.854c0-5.256-1.387-9.367-4.156-12.34
	c-2.771-2.969-6.727-4.455-11.867-4.455c-4.229,0-7.813,1.258-10.754,3.771c-2.943,2.514-4.443,6.197-4.498,11.053h-24.336
	l-0.172-0.514c-0.172-10.969,3.441-19.365,10.84-25.193c7.396-5.826,17.037-8.74,28.92-8.74c12.795,0,22.836,3.244,30.119,9.727
	c7.283,6.484,10.924,15.295,10.924,26.434C289.799,240.424,287.67,247.137,283.416,253.305z"/>
</svg>
