<?xml version="1.0" encoding="utf-8"?>
<!-- Generator: Adobe Illustrator 16.0.0, SVG Export Plug-In . SVG Version: 6.00 Build 0)  -->
<!DOCTYPE svg PUBLIC "-//W3C//DTD SVG 1.1//EN" "http://www.w3.org/Graphics/SVG/1.1/DTD/svg11.dtd">
<svg version="1.1" id="Layer_1" xmlns="http://www.w3.org/2000/svg" xmlns:xlink="http://www.w3.org/1999/xlink" x="0px" y="0px"
	 width="500px" height="500px" viewBox="0 0 500 500" enable-background="new 0 0 500 500" xml:space="preserve">
<g>
	<path fill="#414042" d="M282.726,97.215l-92.581,98.121L308.78,305.492l92.597-98.116c28.779-30.53,25.643-80.284-6.951-110.579
		C361.784,66.485,311.522,66.702,282.726,97.215z"/>
	<path fill="#414042" d="M217.579,392.242c-28.316,30.045-75.884,31.981-105.712,4.322c-29.796-27.675-31.021-74.88-2.713-104.91
		l87.162-92.424l-5.084-4.725l-92.609,98.116c-28.779,30.529-25.639,80.284,6.955,110.587c32.646,30.304,82.896,30.094,111.7-0.436
		l92.576-98.12l-5.161-4.806L217.579,392.242z"/>
</g>
</svg>
