<?xml version="1.0" encoding="utf-8"?>
<!-- Generator: Adobe Illustrator 16.0.0, SVG Export Plug-In . SVG Version: 6.00 Build 0)  -->
<!DOCTYPE svg PUBLIC "-//W3C//DTD SVG 1.1//EN" "http://www.w3.org/Graphics/SVG/1.1/DTD/svg11.dtd">
<svg version="1.1" id="Layer_1" xmlns="http://www.w3.org/2000/svg" xmlns:xlink="http://www.w3.org/1999/xlink" x="0px" y="0px"
	 width="500px" height="500px" viewBox="0 0 500 500" enable-background="new 0 0 500 500" xml:space="preserve">
<g>
	<polygon fill="#414042" points="179.022,121.387 171.917,76.415 76.671,91.481 	"/>
	<path fill="#414042" d="M295.551,271.926l-77.972,12.596L195.32,143.677L44.232,99.521l40.706,257.533l0.549-0.078
		c0.094,2.713,0.306,5.458,0.737,8.219c6,37.929,42.635,63.654,81.818,57.474c16.219-2.557,30.258-10.243,40.815-20.988
		l114.144-37.882L295.551,271.926z M162.693,388.818c-19.874,3.153-38.462-9.914-41.505-29.16
		c-3.043-19.231,10.604-37.38,30.493-40.533c19.875-3.137,38.47,9.914,41.505,29.16C196.23,367.532,182.583,385.681,162.693,388.818
		z"/>
	<g>
		<g>
			<polygon fill="#414042" points="432.27,291.894 419.956,294.717 418.795,287.973 431.109,285.149 			"/>
			<polygon fill="#414042" points="453.398,287.063 441.085,289.871 439.925,283.125 452.238,280.302 			"/>
			<polygon fill="#414042" points="411.141,296.725 398.827,299.549 397.682,292.804 409.98,289.98 			"/>
			<polygon fill="#414042" points="390.012,301.572 377.698,304.38 376.537,297.635 388.851,294.827 			"/>
			<polygon fill="#414042" points="368.883,306.403 356.569,309.211 355.408,302.466 367.722,299.643 			"/>
			<polygon fill="#414042" points="347.754,311.235 335.439,314.059 334.295,307.313 346.593,304.49 			"/>
		</g>
		<g>
			<polygon fill="#414042" points="433.32,360.677 421.337,357.399 423.188,350.717 435.172,353.995 			"/>
			<polygon fill="#414042" points="453.9,366.324 441.917,363.03 443.768,356.348 455.768,359.626 			"/>
			<polygon fill="#414042" points="412.74,355.046 400.757,351.768 402.607,345.085 414.592,348.364 			"/>
			<polygon fill="#414042" points="392.16,349.415 380.161,346.136 382.012,339.454 394.012,342.732 			"/>
			<polygon fill="#414042" points="371.564,343.799 359.581,340.505 361.432,333.823 373.416,337.101 			"/>
			<polygon fill="#414042" points="350.984,338.168 339.001,334.874 340.852,328.191 352.836,331.47 			"/>
		</g>
		<g>
			<polygon fill="#414042" points="412.771,226.052 402.874,234.507 398.89,229.205 408.804,220.75 			"/>
			<polygon fill="#414042" points="429.791,211.534 419.878,219.989 415.894,214.688 425.807,206.232 			"/>
			<polygon fill="#414042" points="395.769,240.562 385.854,249.016 381.887,243.699 391.784,235.251 			"/>
			<polygon fill="#414042" points="378.765,255.071 368.852,263.534 364.867,258.216 374.78,249.769 			"/>
			<polygon fill="#414042" points="361.761,269.588 351.848,278.043 347.863,272.741 357.777,264.287 			"/>
			<polygon fill="#414042" points="344.742,284.114 334.844,292.553 330.859,287.251 340.758,278.796 			"/>
		</g>
	</g>
</g>
</svg>
