<?xml version="1.0" encoding="utf-8"?>
<!-- Generator: Adobe Illustrator 16.0.0, SVG Export Plug-In . SVG Version: 6.00 Build 0)  -->
<!DOCTYPE svg PUBLIC "-//W3C//DTD SVG 1.1//EN" "http://www.w3.org/Graphics/SVG/1.1/DTD/svg11.dtd">
<svg version="1.1" id="Layer_1" xmlns="http://www.w3.org/2000/svg" xmlns:xlink="http://www.w3.org/1999/xlink" x="0px" y="0px"
	 width="500px" height="500px" viewBox="0 0 500 500" enable-background="new 0 0 500 500" xml:space="preserve">
<g>
	<path fill="#414042" d="M149.078,139.981c0,17.461,14.151,31.615,31.62,31.615c17.452,0,31.624-14.154,31.624-31.615
		c0-17.469-14.172-31.624-31.624-31.624C163.229,108.358,149.078,122.512,149.078,139.981z"/>
	<path fill="#414042" d="M222.982,157.738c0,27.281,22.112,49.379,49.38,49.379c27.272,0,49.388-22.098,49.388-49.379
		c0-27.272-22.116-49.38-49.388-49.38C245.094,108.358,222.982,130.465,222.982,157.738z"/>
	<path fill="#414042" d="M297.73,240.045c0,9.598,7.783,17.399,17.39,17.399c9.605,0,17.398-7.801,17.398-17.399
		c0-9.606-7.793-17.397-17.398-17.397C305.514,222.647,297.73,230.439,297.73,240.045z"/>
	<path fill="#414042" d="M212.322,77.655c0,11.428,9.253,20.686,20.687,20.686c11.424,0,20.686-9.258,20.686-20.686
		c0-11.42-9.262-20.696-20.686-20.696C221.575,56.959,212.322,66.235,212.322,77.655z"/>
	<path fill="#414042" d="M147.814,56.959c0,11.956,9.69,21.66,21.651,21.66c11.956,0,21.647-9.704,21.647-21.66
		c0-11.947-9.691-21.643-21.647-21.643C157.505,35.316,147.814,45.012,147.814,56.959z"/>
	<path fill="#414042" d="M413.084,121.949l-27.308,171.363c-33.974,5.004-82.317,3.342-145.837-10.008
		c-63.521-13.368-125.696,10.008-125.696,10.008L86.925,121.949H71.431l54.616,342.734h60.009h127.903h60.004l54.608-342.734
		H413.084z M160.4,335.114c0-5.004,4.057-9.061,9.066-9.061c5.013,0,9.061,4.056,9.061,9.061c0,5.004-4.048,9.079-9.061,9.079
		C164.457,344.193,160.4,340.118,160.4,335.114z M186.055,382.688c-7.229,0-13.082-5.862-13.082-13.082
		c0-7.203,5.853-13.082,13.082-13.082c7.234,0,13.082,5.879,13.082,13.082C199.137,376.826,193.289,382.688,186.055,382.688z
		 M212.322,351.716c-12.891,0-23.345-10.455-23.345-23.358c0-12.886,10.455-23.34,23.345-23.34c12.89,0,23.336,10.455,23.336,23.34
		C235.658,341.262,225.212,351.716,212.322,351.716z"/>
</g>
</svg>
